<?xml version="1.0" encoding="utf-8"?>
<!-- Generator: Adobe Illustrator 22.1.0, SVG Export Plug-In . SVG Version: 6.00 Build 0)  -->
<svg version="1.1" xmlns="http://www.w3.org/2000/svg" xmlns:xlink="http://www.w3.org/1999/xlink" x="0px" y="0px"
	 viewBox="0 0 505.917 91.5" style="enable-background:new 0 0 505.917 91.5;" xml:space="preserve">
<style type="text/css">
	.st0{fill:#E84141;}
	.st1{fill:#FFFFFF;}
	.st2{fill:#3C3C3C;}
	.st3{fill:none;stroke:#FFFFFF;stroke-width:0.6919;stroke-miterlimit:10;}
</style>
<g id="Intra.NET_Reloaded">
	<path class="st0" d="M55.635,57.084L39.07,62.835l0.009,1.603c0.002,0.328,0.008,1.303-0.418,2.556
		c-0.036,0.068-0.072,0.137-0.106,0.21l-0.09,0.224c-2.989,8.767-15.877,8.605-18.671-0.191l-0.065-0.183
		c-0.248-0.825-0.378-1.569-0.378-2.16l-0.016-0.658l0.013-0.313l-0.151-19.673V33.235c0-10.528-16.362-10.631-16.537-0.034v29.989
		c0,12.23,6.105,20.942,17.735,25.222c2.698,0.882,5.632,1.223,8.461,1.223l2.231-0.015l0,0c2.766-0.192,5.495-0.753,6.964-1.234
		c11.688-4.304,17.614-12.775,17.614-25.18L55.635,57.084z"/>
	<g>
		<circle class="st1" cx="78.217" cy="73.442" r="16.082"/>
		<g>
			<path class="st2" d="M73.293,75.447c0,1.554-1.255,2.642-3.251,2.642c-1.076,0-2.199-0.358-2.952-0.872l0.49-0.933
				c0.657,0.514,1.53,0.825,2.39,0.825c1.386,0,2.199-0.657,2.199-1.625c0-1.004-0.837-1.518-2.235-1.518h-1.147v-0.729l2.57-2.534
				h-3.861l-0.012-1.04h5.379v0.729l-2.809,2.785l0.502,0.036C72.194,73.308,73.293,74.109,73.293,75.447z"/>
			<path class="st2" d="M78.254,70.57c-1.745,0-2.594,1.386-2.486,3.478c0.406-0.908,1.255-1.398,2.426-1.398
				c1.673,0,2.701,1.028,2.701,2.654c0,1.709-1.159,2.785-2.904,2.785c-2.092,0-3.359-1.494-3.359-4.064
				c0-2.665,1.374-4.411,3.538-4.411c0.801,0,1.757,0.239,2.438,0.609l-0.454,0.873C79.617,70.762,78.9,70.57,78.254,70.57z
				 M75.995,75.351c-0.012,0.777,0.574,1.733,1.924,1.733c1.123,0,1.9-0.67,1.9-1.793c0-1.064-0.717-1.721-1.829-1.721
				C76.724,73.571,75.983,74.407,75.995,75.351z"/>
			<path class="st2" d="M89.347,73.846c0,2.725-1.255,4.243-3.502,4.243c-2.259,0-3.502-1.518-3.502-4.243
				c0-2.725,1.243-4.231,3.502-4.231C88.092,69.614,89.347,71.12,89.347,73.846z M83.526,73.846c0,2.211,0.789,3.323,2.319,3.323
				c1.53,0,2.319-1.112,2.319-3.323c0-2.223-0.789-3.323-2.319-3.323C84.315,70.523,83.526,71.622,83.526,73.846z"/>
		</g>
	</g>
	<path class="st0" d="M81.912,9.285l-0.178-0.176c-4.833-4.518-10.98-7.243-17.64-7.243l-0.239,0.011
		c-3.103,0.24-5.329,0.606-7.085,1.182C45.218,7.312,39.113,16.024,39.113,28.255l0.007,31.068l16.53-5.719v-2.966
		c2.415,0.834,5.039,1.255,7.839,1.255h1.161c3.662,0,7.456-0.977,11.349-2.941l0.214-0.12c6.379-3.851,11.359-9.678,12.712-17.149
		C90.424,23.41,87.662,15.321,81.912,9.285z M64.174,35.617c-4.78,0-8.655-3.875-8.655-8.655s3.875-8.655,8.655-8.655
		s8.655,3.875,8.655,8.655S68.954,35.617,64.174,35.617z"/>
	<g>
		<path class="st1" d="M127.004,89.478V26.48h5.94v62.997H127.004z"/>
		<path class="st1" d="M169.194,83.448l-1.35-8.37l-0.45-48.598h5.85v58.587c0,2.88-1.98,4.41-4.05,4.41
			c-1.53,0-3.24-1.08-3.96-2.79c-6.66-16.469-14.04-36.628-20.429-53.367l1.17,9.27v46.888h-5.76V30.8
			c-0.09-2.88,2.07-4.59,4.32-4.59c1.8,0,3.69,1.08,4.14,3.15l-0.09-0.181L169.194,83.448z"/>
		<path class="st1" d="M215.372,26.48v5.85h-15.12v57.147h-5.85V32.33h-14.759v-5.85H215.372z"/>
		<path class="st1" d="M227.504,26.39h12.6c8.279,0,14.399,6.12,14.399,14.399v9.63c0,4.41-4.23,10.89-9.72,11.609
			c6.03,0.811,9.99,7.29,9.99,11.79v15.659h-5.85V73.818c0-5.04-5.85-8.82-10.529-8.82h-10.26v24.479h-5.76V31.61
			C222.374,28.55,224.444,26.39,227.504,26.39z M228.134,32.24v-0.36c-0.09,0.18-0.18,0.36-0.45,0.36H228.134z M228.134,32.24
			v26.908h10.26c4.68,0,10.259-3.779,10.259-8.729v-9.63c0-4.68-3.69-8.549-8.549-8.549H228.134z"/>
		<path class="st1" d="M289.485,67.339h-16.919c-3.06,11.789-4.59,17.459-5.67,22.139h-6.209l15.119-59.308
			c0.9-2.88,3.24-4.41,5.31-4.41c1.98,0,4.41,1.71,5.13,4.32l15.39,59.397h-6.39L289.485,67.339z M281.295,32.149l-7.38,29.43
			h14.129L281.295,32.149z M281.115,31.34l0.18,0.81c0-0.18,0-0.27,0.09-0.449L281.115,31.34z"/>
		<path class="st1" d="M314.172,85.788c0,2.34-1.62,3.869-4.05,3.869c-2.25,0-3.78-1.529-3.78-3.869c0-2.25,1.53-3.96,3.78-3.96
			C312.552,81.828,314.172,83.538,314.172,85.788z"/>
		<path class="st1" d="M348.065,83.448l-1.35-8.37l-0.45-48.598h5.85v58.587c0,2.88-1.98,4.41-4.05,4.41
			c-1.53,0-3.24-1.08-3.96-2.79c-6.66-16.469-14.04-36.628-20.429-53.367l1.17,9.27v46.888h-5.76V30.8
			c-0.09-2.88,2.07-4.59,4.32-4.59c1.8,0,3.69,1.08,4.14,3.15l-0.09-0.181L348.065,83.448z"/>
		<path class="st1" d="M386.701,32.33l-21.779,0.18v21.779h20.789v5.85h-20.789v14.76c0,4.59,3.87,8.729,8.55,8.729h13.229v5.85
			h-13.229c-7.83,0-14.399-6.75-14.399-14.579V31.61c0-2.971,2.61-5.13,5.22-5.13h22.409V32.33z"/>
		<path class="st1" d="M429.279,26.48v5.85H414.16v57.147h-5.85V32.33h-14.76v-5.85H429.279z"/>
	</g>
	<line class="st3" x1="108.589" y1="1.937" x2="108.589" y2="89.688"/>
</g>
<g id="Helplines">
	<g>
	</g>
	<g>
	</g>
	<g>
	</g>
	<g>
	</g>
	<g>
	</g>
	<g>
	</g>
</g>
</svg>
